<?xml version="1.0" encoding="UTF-8" standalone="no"?>
<!-- Created with Inkscape (http://www.inkscape.org/) -->

<svg
   xmlns:osb="http://www.openswatchbook.org/uri/2009/osb"
   xmlns:dc="http://purl.org/dc/elements/1.1/"
   xmlns:cc="http://creativecommons.org/ns#"
   xmlns:rdf="http://www.w3.org/1999/02/22-rdf-syntax-ns#"
   xmlns:svg="http://www.w3.org/2000/svg"
   xmlns="http://www.w3.org/2000/svg"
   xmlns:sodipodi="http://sodipodi.sourceforge.net/DTD/sodipodi-0.dtd"
   xmlns:inkscape="http://www.inkscape.org/namespaces/inkscape"
   width="30pt"
   height="30pt"
   viewBox="0 0 29.999999 29.999999"
   version="1.1"
   id="svg8"
   inkscape:version="0.92.5 (2060ec1f9f, 2020-04-08)"
   sodipodi:docname="Twitter.svg">
  <defs
     id="defs2">
    <linearGradient
       id="linearGradient2335"
       osb:paint="solid">
      <stop
         style="stop-color:#e2e2e2;stop-opacity:1;"
         offset="0"
         id="stop2333" />
    </linearGradient>
    <linearGradient
       id="linearGradient895"
       osb:paint="solid">
      <stop
         style="stop-color:#e2e228;stop-opacity:1;"
         offset="0"
         id="stop893" />
    </linearGradient>
  </defs>
  <sodipodi:namedview
     id="base"
     pagecolor="#ebc7e2"
     bordercolor="#666666"
     borderopacity="1.0"
     inkscape:pageopacity="1"
     inkscape:pageshadow="2"
     inkscape:zoom="14.55"
     inkscape:cx="5.6699031"
     inkscape:cy="16.659136"
     inkscape:document-units="pt"
     inkscape:current-layer="layer2"
     showgrid="false"
     inkscape:window-width="1920"
     inkscape:window-height="954"
     inkscape:window-x="0"
     inkscape:window-y="27"
     inkscape:window-maximized="1"
     units="pt"
     width="11.000001in"
     inkscape:snap-text-baseline="false"
     inkscape:snap-page="false" />
  <metadata
     id="metadata5">
    <rdf:RDF>
      <cc:Work
         rdf:about="">
        <dc:format>image/svg+xml</dc:format>
        <dc:type
           rdf:resource="http://purl.org/dc/dcmitype/StillImage" />
        <dc:title />
      </cc:Work>
    </rdf:RDF>
  </metadata>
  <g
     inkscape:groupmode="layer"
     id="layer2"
     inkscape:label="Background"
     transform="translate(0,-10)"
     style="display:inline">
    <circle
       id="path3763"
       cx="14.999999"
       cy="25"
       style="fill:none;stroke:#fffffd;stroke-width:0.96774197;stroke-miterlimit:4;stroke-dasharray:none;stroke-opacity:1;paint-order:markers fill stroke"
       r="14.516129" />
  </g>
  <g
     inkscape:groupmode="layer"
     id="layer3"
     inkscape:label="Layer 2"
     transform="translate(0,-10)"
     style="display:inline">
    <g
       id="layer1"
       transform="matrix(0.06435322,0,0,0.06435322,-28.796337,-19.069413)"
       style="fill:#ffffff;fill-opacity:1">
      <path
         d="m 633.89823,812.04479 c 112.46038,0 173.95627,-93.16765 173.95627,-173.95625 0,-2.64628 -0.0539,-5.28062 -0.1726,-7.90305 11.93799,-8.63016 22.31446,-19.39999 30.49762,-31.65984 -10.95459,4.86937 -22.74358,8.14741 -35.11071,9.62551 12.62341,-7.56929 22.31446,-19.54304 26.88583,-33.81739 -11.81284,7.00307 -24.89517,12.09297 -38.82383,14.84055 -11.15723,-11.88436 -27.04079,-19.31655 -44.62892,-19.31655 -33.76374,0 -61.14426,27.38052 -61.14426,61.13233 0,4.79784 0.5364,9.46458 1.58538,13.94057 -50.81546,-2.55686 -95.87353,-26.88582 -126.02546,-63.87991 -5.25082,9.03545 -8.27852,19.53111 -8.27852,30.73006 0,21.21186 10.79366,39.93837 27.20766,50.89296 -10.03077,-0.30992 -19.45363,-3.06348 -27.69044,-7.64676 -0.009,0.25652 -0.009,0.50661 -0.009,0.78077 0,29.60957 21.07478,54.3319 49.0513,59.93435 -5.13757,1.40062 -10.54335,2.15158 -16.12196,2.15158 -3.93364,0 -7.76596,-0.38716 -11.49099,-1.1026 7.78383,24.2932 30.35457,41.97073 57.11525,42.46543 -20.92578,16.40207 -47.28712,26.17062 -75.93712,26.17062 -4.92898,0 -9.79834,-0.28036 -14.58427,-0.84634 27.05868,17.34379 59.18936,27.46396 93.72193,27.46396"
         style="fill:#ffffff;fill-opacity:1;fill-rule:nonzero;stroke:none"
         id="path3611"
         inkscape:connector-curvature="0" />
    </g>
  </g>
</svg>
