<?xml version="1.0" encoding="UTF-8" standalone="no"?>
<!-- Created with Inkscape (http://www.inkscape.org/) -->

<svg
   xmlns:osb="http://www.openswatchbook.org/uri/2009/osb"
   xmlns:dc="http://purl.org/dc/elements/1.1/"
   xmlns:cc="http://creativecommons.org/ns#"
   xmlns:rdf="http://www.w3.org/1999/02/22-rdf-syntax-ns#"
   xmlns:svg="http://www.w3.org/2000/svg"
   xmlns="http://www.w3.org/2000/svg"
   xmlns:sodipodi="http://sodipodi.sourceforge.net/DTD/sodipodi-0.dtd"
   xmlns:inkscape="http://www.inkscape.org/namespaces/inkscape"
   width="30pt"
   height="30pt"
   viewBox="0 0 29.999999 29.999999"
   version="1.1"
   id="svg8"
   inkscape:version="0.92.5 (2060ec1f9f, 2020-04-08)"
   sodipodi:docname="Youtube.svg">
  <defs
     id="defs2">
    <linearGradient
       id="linearGradient2447"
       osb:paint="solid">
      <stop
         style="stop-color:#ff0028;stop-opacity:1;"
         offset="0"
         id="stop2445" />
    </linearGradient>
    <linearGradient
       id="linearGradient2335"
       osb:paint="solid">
      <stop
         style="stop-color:#e2e2e2;stop-opacity:1;"
         offset="0"
         id="stop2333" />
    </linearGradient>
    <linearGradient
       id="linearGradient895"
       osb:paint="solid">
      <stop
         style="stop-color:#e2e228;stop-opacity:1;"
         offset="0"
         id="stop893" />
    </linearGradient>
  </defs>
  <sodipodi:namedview
     id="base"
     pagecolor="#ebc7e2"
     bordercolor="#666666"
     borderopacity="1.0"
     inkscape:pageopacity="1"
     inkscape:pageshadow="2"
     inkscape:zoom="10.288404"
     inkscape:cx="3.7488096"
     inkscape:cy="25.518403"
     inkscape:document-units="pt"
     inkscape:current-layer="g2419"
     showgrid="false"
     inkscape:window-width="1920"
     inkscape:window-height="954"
     inkscape:window-x="0"
     inkscape:window-y="27"
     inkscape:window-maximized="1"
     units="pt"
     width="11.000001in"
     inkscape:snap-text-baseline="false"
     inkscape:snap-page="false" />
  <metadata
     id="metadata5">
    <rdf:RDF>
      <cc:Work
         rdf:about="">
        <dc:format>image/svg+xml</dc:format>
        <dc:type
           rdf:resource="http://purl.org/dc/dcmitype/StillImage" />
        <dc:title></dc:title>
      </cc:Work>
    </rdf:RDF>
  </metadata>
  <g
     inkscape:groupmode="layer"
     id="layer2"
     inkscape:label="Background"
     transform="translate(0,-10)"
     style="display:inline">
    <circle
       id="path3763"
       cx="14.999999"
       cy="25"
       style="fill:none;stroke:#fffffd;stroke-width:0.96774197;stroke-miterlimit:4;stroke-dasharray:none;stroke-opacity:1;paint-order:markers fill stroke"
       r="14.516129" />
  </g>
  <g
     inkscape:groupmode="layer"
     id="layer3"
     inkscape:label="Layer 2"
     transform="translate(0,-10)"
     style="display:inline">
    <g
       id="g2419"
       transform="matrix(0.12177218,0,0,0.12177218,5.477478,19.017658)">
      <path
         style="fill:#ffffff;fill-opacity:1;stroke-width:0.1623629"
         d="M 19.986328 11.134766 C 19.986328 11.134766 12.079826 11.151702 10.115234 11.6875 A 3.182313 3.182313 0 0 0 7.875 13.927734 C 7.2807518 17.418537 7.0495851 22.73672 7.890625 26.087891 A 3.182313 3.182313 0 0 0 10.130859 28.330078 C 12.095451 28.865876 20.003906 28.865234 20.003906 28.865234 C 20.003906 28.865234 27.910409 28.865876 29.875 28.330078 A 3.182313 3.182313 0 0 0 32.115234 26.087891 C 32.741955 22.592217 32.935778 17.277892 32.099609 13.912109 A 3.182313 3.182313 0 0 0 29.859375 11.669922 C 27.894784 11.134124 19.986328 11.134766 19.986328 11.134766 z M 17.470703 16.201172 L 24.029297 20 L 17.470703 23.798828 L 17.470703 16.201172 z "
         transform="matrix(6.1590422,0,0,6.1590422,-44.981358,-74.053515)"
         id="path2391" />
    </g>
  </g>
</svg>
